<svg id="wave" style="transform:rotate(0deg); transition: 0.3s" viewBox="0 0 1440 160" version="1.1" xmlns="http://www.w3.org/2000/svg"><defs><linearGradient id="sw-gradient-0" x1="0" x2="0" y1="1" y2="0"><stop stop-color="rgba(185.36, 113.999, 227.999, 1)" offset="0%"></stop><stop stop-color="rgba(154.715, 158.124, 166.526, 1)" offset="100%"></stop></linearGradient></defs><path style="transform:translate(0, 0px); opacity:1" fill="url(#sw-gradient-0)" d="M0,48L60,58.7C120,69,240,91,360,101.3C480,112,600,112,720,93.3C840,75,960,37,1080,40C1200,43,1320,85,1440,85.3C1560,85,1680,43,1800,32C1920,21,2040,43,2160,42.7C2280,43,2400,21,2520,32C2640,43,2760,85,2880,98.7C3000,112,3120,96,3240,96C3360,96,3480,112,3600,114.7C3720,117,3840,107,3960,98.7C4080,91,4200,85,4320,85.3C4440,85,4560,91,4680,77.3C4800,64,4920,32,5040,37.3C5160,43,5280,85,5400,85.3C5520,85,5640,43,5760,34.7C5880,27,6000,53,6120,74.7C6240,96,6360,112,6480,104C6600,96,6720,64,6840,42.7C6960,21,7080,11,7200,8C7320,5,7440,11,7560,32C7680,53,7800,91,7920,104C8040,117,8160,107,8280,90.7C8400,75,8520,53,8580,42.7L8640,32L8640,160L8580,160C8520,160,8400,160,8280,160C8160,160,8040,160,7920,160C7800,160,7680,160,7560,160C7440,160,7320,160,7200,160C7080,160,6960,160,6840,160C6720,160,6600,160,6480,160C6360,160,6240,160,6120,160C6000,160,5880,160,5760,160C5640,160,5520,160,5400,160C5280,160,5160,160,5040,160C4920,160,4800,160,4680,160C4560,160,4440,160,4320,160C4200,160,4080,160,3960,160C3840,160,3720,160,3600,160C3480,160,3360,160,3240,160C3120,160,3000,160,2880,160C2760,160,2640,160,2520,160C2400,160,2280,160,2160,160C2040,160,1920,160,1800,160C1680,160,1560,160,1440,160C1320,160,1200,160,1080,160C960,160,840,160,720,160C600,160,480,160,360,160C240,160,120,160,60,160L0,160Z"></path></svg>